<?xml version="1.0" encoding="UTF-8"?>
<svg version="1.1" xmlns="http://www.w3.org/2000/svg" width="178" height="194">
<path d="M0 0 C5.61 0 11.22 0 17 0 C17 10.56 17 21.12 17 32 C26.57 32 36.14 32 46 32 C50 44 50 44 50 50 C39.11 50 28.22 50 17 50 C17 56.6 17 63.2 17 70 C24.92 70 32.84 70 41 70 C41 75.61 41 81.22 41 87 C33.08 87 25.16 87 17 87 C17 105.15 17 123.3 17 142 C57.26 142 97.52 142 139 142 C139 147.61 139 153.22 139 159 C93.13 159 47.26 159 0 159 C0 106.53 0 54.06 0 0 Z " fill="#3F4448" transform="translate(4,30)"/>
<path d="M0 0 C45.54 0 91.08 0 138 0 C138.29107747 39.08050885 138.29107747 39.08050885 138.40429688 55.40429688 C138.48265002 66.6942781 138.56206922 77.98424495 138.64819336 89.27416992 C138.71090054 97.49501278 138.77010781 105.71587198 138.82505554 113.9367705 C138.85429218 118.29243992 138.88531979 122.64808044 138.92053413 127.00370598 C138.95358484 131.09853849 138.98197625 135.19337617 139.00670624 139.28826714 C139.01664681 140.79560087 139.02832816 142.30292422 139.04183006 143.81023026 C139.05993085 145.85924534 139.07131305 147.90831657 139.08229065 149.9573822 C139.09473485 151.68159598 139.09473485 151.68159598 139.10743046 153.44064236 C139 156 139 156 138 157 C135.3226862 157.09981214 132.67695825 157.13879875 130 157.125 C129.24976563 157.12886719 128.49953125 157.13273438 127.7265625 157.13671875 C122.12661053 157.12661053 122.12661053 157.12661053 121 156 C120.90363162 154.21572813 120.87812547 152.42760347 120.87974548 150.64073181 C120.87768349 148.89693993 120.87768349 148.89693993 120.87557983 147.11791992 C120.88097275 145.18770996 120.88097275 145.18770996 120.88647461 143.21850586 C120.88675648 141.85876976 120.88659875 140.4990335 120.8860321 139.13929749 C120.88574413 135.43698222 120.89164088 131.73469908 120.89860606 128.03239131 C120.90483957 124.16731219 120.9054434 120.30223242 120.90663147 116.43714905 C120.90974479 109.11315318 120.9179582 101.78917216 120.92798096 94.46518284 C120.9412273 84.57174343 120.94664199 74.67829998 120.95248318 64.78485394 C120.96189809 49.18989149 120.98181699 33.59496039 121 18 C81.07 17.67 41.14 17.34 0 17 C0 11.39 0 5.78 0 0 Z " fill="#40454A" transform="translate(32,3)"/>
<path d="M0 0 C5.61 0 11.22 0 17 0 C20.00309702 10.93985342 22.61189644 21.91056166 25 33 C26.86279611 29.62610287 27.88030912 26.22630321 28.91015625 22.51953125 C29.26013672 21.27365234 29.61011719 20.02777344 29.97070312 18.74414062 C30.33503172 17.43370387 30.69895932 16.12315556 31.0625 14.8125 C31.77871617 12.23456368 32.49945149 9.65803046 33.22265625 7.08203125 C33.53984619 5.93968018 33.85703613 4.7973291 34.18383789 3.62036133 C35 1 35 1 36 0 C37.34267413 -0.08631874 38.68974322 -0.10706473 40.03515625 -0.09765625 C41.12775757 -0.09390991 41.12775757 -0.09390991 42.24243164 -0.09008789 C43.1730542 -0.08098389 44.10367676 -0.07187988 45.0625 -0.0625 C49.4865625 -0.0315625 49.4865625 -0.0315625 54 0 C56.97 10.89 59.94 21.78 63 33 C63.33 33 63.66 33 64 33 C64.23710693 32.03586182 64.47421387 31.07172363 64.71850586 30.07836914 C65.59646047 26.512381 66.47903658 22.94755038 67.36303711 19.38305664 C67.7454915 17.83812296 68.12668011 16.29287537 68.5065918 14.74731445 C69.05187362 12.52992982 69.60164986 10.31370209 70.15234375 8.09765625 C70.40708717 7.05545677 70.40708717 7.05545677 70.66697693 5.99220276 C71.88612829 1.11387171 71.88612829 1.11387171 73 0 C75.86267567 -0.07325168 78.700719 -0.09238205 81.5625 -0.0625 C82.36880859 -0.05798828 83.17511719 -0.05347656 84.00585938 -0.04882812 C86.00393756 -0.03700518 88.00197783 -0.01906914 90 0 C88.66270448 7.16981535 86.97390636 14.19250367 85.06640625 21.23046875 C84.78780258 22.26512772 84.50919891 23.29978668 84.22215271 24.36579895 C83.63635346 26.53688164 83.04885111 28.70750547 82.4597168 30.87768555 C81.56263608 34.186998 80.67461304 37.49865492 79.78710938 40.81054688 C79.21408973 42.92983576 78.64054015 45.04898145 78.06640625 47.16796875 C77.6725045 48.64163155 77.6725045 48.64163155 77.27064514 50.14506531 C77.01705734 51.07325577 76.76346954 52.00144623 76.50219727 52.95776367 C76.28394791 53.76477219 76.06569855 54.5717807 75.84083557 55.40324402 C74.7793987 58.6812839 73.3572903 61.83298931 72 65 C66.72 65 61.44 65 56 65 C53.96530309 60.25237389 52.33319251 56.08693073 50.95703125 51.19140625 C50.60576172 49.95068359 50.25449219 48.70996094 49.89257812 47.43164062 C49.53244901 46.14195586 49.17242423 44.85224196 48.8125 43.5625 C48.44118739 42.2453208 48.06944624 40.92826233 47.69726562 39.61132812 C46.79396358 36.40871177 45.89501599 33.20493996 45 30 C43.0652499 33.49845969 41.99287108 37.08897215 40.87109375 40.91796875 C40.5792495 41.90474358 40.5792495 41.90474358 40.2815094 42.91145325 C39.66328927 45.00244215 39.04988723 47.09479597 38.4375 49.1875 C37.821351 51.29085554 37.20408981 53.39384485 36.58277893 55.49568176 C36.02139151 57.39488509 35.46456696 59.29543537 34.90795898 61.19604492 C34 64 34 64 33 65 C30.30345146 65.07319621 27.63308542 65.09242537 24.9375 65.0625 C24.17888672 65.05798828 23.42027344 65.05347656 22.63867188 65.04882812 C20.75908129 65.0370068 18.87953101 65.01907078 17 65 C14.40737408 59.38767108 12.71546166 53.76263366 11.15234375 47.7890625 C10.8949794 46.82149017 10.63761505 45.85391785 10.37245178 44.85702515 C9.83134488 42.81875347 9.29277006 40.7798081 8.7565918 38.74023438 C7.94155878 35.64043669 7.11894904 32.54273003 6.29492188 29.4453125 C5.76778376 27.45584713 5.24107686 25.46626744 4.71484375 23.4765625 C4.35071632 22.10269882 4.35071632 22.10269882 3.97923279 20.70108032 C0 5.54401141 0 5.54401141 0 0 Z " fill="#3D4146" transform="translate(57,62)"/>
<path d="M0 0 C45.54 0 91.08 0 138 0 C138 50.82 138 101.64 138 154 C135.66430395 150.49645593 135.75252572 149.12346127 135.75949097 144.98262024 C135.75536697 143.09587082 135.75536697 143.09587082 135.75115967 141.17100525 C135.75823796 139.7745657 135.76550758 138.37812711 135.77294922 136.98168945 C135.77351328 135.5132854 135.77319688 134.04488078 135.77206421 132.57647705 C135.77148949 128.58706326 135.78326308 124.59776931 135.79721212 120.60838342 C135.80969961 116.4403597 135.81088842 112.27233336 135.81326294 108.10429382 C135.81948355 100.21014807 135.8359022 92.3160576 135.85596192 84.42193621 C135.88247882 73.7555825 135.89328887 63.08921371 135.90496635 52.42283535 C135.9237824 35.61518215 135.96362419 18.8076456 136 2 C91.78 2 47.56 2 2 2 C2 6.29 2 10.58 2 15 C41.6 15 81.2 15 122 15 C122 15.66 122 16.32 122 17 C81.74 17 41.48 17 0 17 C0 11.39 0 5.78 0 0 Z " fill="#32373A" transform="translate(32,3)"/>
<path d="M0 0 C5.61 0 11.22 0 17 0 C17 10.56 17 21.12 17 32 C26.57 32 36.14 32 46 32 C48.25 38.75 48.25 38.75 47 42 C45.0549 39.08235 44.54723683 37.37462715 44 34 C42.74340576 33.96241577 42.74340576 33.96241577 41.46142578 33.92407227 C38.35647744 33.82899643 35.25169819 33.72975975 32.14697266 33.62768555 C30.14105193 33.56301749 28.13497772 33.50316894 26.12890625 33.44335938 C24.24365234 33.38051758 24.24365234 33.38051758 22.3203125 33.31640625 C21.15773926 33.27974854 19.99516602 33.24309082 18.79736328 33.20532227 C16 33 16 33 14 32 C14.33 22.1 14.66 12.2 15 2 C10.38 2 5.76 2 1 2 C1 53.48 1 104.96 1 158 C1.66 157.67 2.32 157.34 3 157 C4.77355762 156.89484853 6.55103323 156.85340446 8.32766724 156.84178162 C10.02303619 156.82709839 10.02303619 156.82709839 11.75265503 156.81211853 C13.62136765 156.80348534 13.62136765 156.80348534 15.52783203 156.79467773 C16.83510254 156.78477814 18.14237305 156.77487854 19.48925781 156.76467896 C23.07991428 156.7375997 26.67058394 156.71660653 30.26128626 156.69667697 C34.01160756 156.67483602 37.76188809 156.64743809 41.51217651 156.62062073 C48.61653066 156.57066823 55.7209074 156.5257389 62.82530582 156.48259836 C70.91228688 156.43324782 78.99922702 156.37832161 87.08616853 156.32291877 C103.7240749 156.20905947 120.36201927 156.10242683 137 156 C137.33 152.04 137.66 148.08 138 144 C98.07 144 58.14 144 17 144 C17 143.34 17 142.68 17 142 C57.26 142 97.52 142 139 142 C139 147.61 139 153.22 139 159 C93.13 159 47.26 159 0 159 C0 106.53 0 54.06 0 0 Z " fill="#2B2F32" transform="translate(4,30)"/>
<path d="M0 0 C3.09526726 2.46214441 4.72001189 4.17753493 6 7.9375 C6 12.56223202 4.37031301 15.47742999 1.3125 18.875 C-2.12273117 20.54619354 -5.31272169 20.76237961 -9 20 C-13.15944245 17.10647481 -15.00946317 13.87554308 -15.96875 8.99609375 C-16 7 -16 7 -14.5625 3.625 C-10.51915786 -0.51696024 -5.52484213 -2.18085874 0 0 Z " fill="#FC9128" transform="translate(18,2)"/>
<path d="M0 0 C3.44312714 2.1244827 4.71617547 3.14852641 6 7 C6.375 10.375 6.375 10.375 6 14 C2.79520377 17.87949018 0.69366403 19.80826445 -4.3125 20.375 C-8 20 -8 20 -10.875 17.625 C-14.16087102 13.56598286 -14.44427743 11.24247372 -14 6 C-10.26270047 0.26947406 -6.75186421 -0.95716083 0 0 Z " fill="#495055" transform="translate(165,170)"/>
<path d="M0 0 C2.22033962 3.33050943 2.25445723 4.38573137 2.27174377 8.26914978 C2.2814621 9.36133316 2.29118042 10.45351654 2.30119324 11.57879639 C2.30207695 13.37658539 2.30207695 13.37658539 2.30297852 15.21069336 C2.31563751 17.10365898 2.31563751 17.10365898 2.32855225 19.03486633 C2.34683401 21.78004958 2.35887058 24.52516466 2.36609077 27.27039909 C2.37757255 31.61105126 2.40302742 35.95155265 2.43040466 40.29212952 C2.47206471 47.15793744 2.50447305 54.02375262 2.53287882 60.88962704 C2.58382904 73.18359899 2.64603843 85.4775075 2.71821922 97.77137285 C2.74313015 102.08634094 2.76256725 106.40128934 2.77760136 110.71630275 C2.78535195 112.75435779 2.7952797 114.79238849 2.80615234 116.83042908 C2.81930204 119.31549403 2.82890744 121.80058123 2.83433533 124.28567505 C2.84123383 125.38067825 2.84813232 126.47568146 2.85523987 127.60386658 C2.85909478 128.55494765 2.8629497 129.50602873 2.86692142 130.48593044 C2.93455672 133.2791535 2.93455672 133.2791535 4 137 C8.62 137 13.24 137 18 137 C17.67 137.66 17.34 138.32 17 139 C14.35409986 139.02684679 11.70846904 139.04676357 9.0625 139.0625 C8.30775391 139.07087891 7.55300781 139.07925781 6.77539062 139.08789062 C4.85005687 139.09652441 2.92464419 139.05224333 1 139 C0 138 0 138 -0.12304783 135.72175503 C-0.12166514 134.19664854 -0.12166514 134.19664854 -0.12025452 132.64073181 C-0.12162918 131.47820389 -0.12300385 130.31567596 -0.12442017 129.11791992 C-0.12082489 127.83111328 -0.11722961 126.54430664 -0.11352539 125.21850586 C-0.11324352 123.85876976 -0.11340125 122.4990335 -0.1139679 121.13929749 C-0.11425587 117.43698222 -0.10835912 113.73469908 -0.10139394 110.03239131 C-0.09516043 106.16731219 -0.0945566 102.30223242 -0.09336853 98.43714905 C-0.09025521 91.11315318 -0.0820418 83.78917216 -0.07201904 76.46518284 C-0.06085794 68.12916552 -0.05534746 59.79314751 -0.05032361 51.45712459 C-0.03985919 34.30474112 -0.02225973 17.15237213 0 0 Z M4 134 C6 135 6 135 6 135 Z " fill="#2E3135" transform="translate(153,21)"/>
<path d="M0 0 C0.495 1.98 0.495 1.98 1 4 C-9.89 4 -20.78 4 -32 4 C-32 10.6 -32 17.2 -32 24 C-24.08 24 -16.16 24 -8 24 C-8 29.61 -8 35.22 -8 41 C-15.92 41 -23.84 41 -32 41 C-32 59.15 -32 77.3 -32 96 C-32.33 96 -32.66 96 -33 96 C-33.16811334 88.36464676 -33.32802473 80.72915363 -33.48217773 73.09350586 C-33.53561628 70.49483328 -33.59094704 67.89619891 -33.64819336 65.29760742 C-33.73005223 61.56697835 -33.80515196 57.83626574 -33.87890625 54.10546875 C-33.90594131 52.93976852 -33.93297638 51.7740683 -33.96083069 50.57304382 C-33.98092697 49.49214981 -34.00102325 48.4112558 -34.02172852 47.29760742 C-34.04171402 46.34496506 -34.06169952 45.39232269 -34.08229065 44.41081238 C-34 42 -34 42 -33 39 C-25.74 38.67 -18.48 38.34 -11 38 C-10.67 34.04 -10.34 30.08 -10 26 C-11.63710938 26.02320312 -13.27421875 26.04640625 -14.9609375 26.0703125 C-17.09895379 26.08906703 -19.23697499 26.10726757 -21.375 26.125 C-22.99535156 26.15013672 -22.99535156 26.15013672 -24.6484375 26.17578125 C-25.6796875 26.18222656 -26.7109375 26.18867187 -27.7734375 26.1953125 C-29.20308838 26.21102295 -29.20308838 26.21102295 -30.66162109 26.22705078 C-33 26 -33 26 -35 24 C-35.13525391 21.84521484 -35.13525391 21.84521484 -34.9765625 19.2109375 C-34.93096191 18.36321777 -34.88536133 17.51549805 -34.83837891 16.64208984 C-34.76796387 15.5639502 -34.69754883 14.48581055 -34.625 13.375 C-34.41875 9.95125 -34.2125 6.5275 -34 3 C-23.11 2.67 -12.22 2.34 -1 2 C-0.67 1.34 -0.34 0.68 0 0 Z " fill="#2B2F32" transform="translate(53,76)"/>
<path d="M0 0 C5.28 0 10.56 0 16 0 C16 10.56 16 21.12 16 32 C25.57 32 35.14 32 45 32 C47.25 38.75 47.25 38.75 46 42 C44.0549 39.08235 43.54723683 37.37462715 43 34 C41.74340576 33.96241577 41.74340576 33.96241577 40.46142578 33.92407227 C37.35647744 33.82899643 34.25169819 33.72975975 31.14697266 33.62768555 C29.14105193 33.56301749 27.13497772 33.50316894 25.12890625 33.44335938 C23.24365234 33.38051758 23.24365234 33.38051758 21.3203125 33.31640625 C20.15773926 33.27974854 18.99516602 33.24309082 17.79736328 33.20532227 C15 33 15 33 13 32 C13.33 22.1 13.66 12.2 14 2 C9.71 2 5.42 2 1 2 C0.67 1.34 0.34 0.68 0 0 Z " fill="#33393C" transform="translate(5,30)"/>
<path d="M0 0 C3.09526726 2.46214441 4.72001189 4.17753493 6 7.9375 C6 11.77523843 5.10300954 13.8092269 3 17 C0.8125 18.375 0.8125 18.375 -1 19 C-0.01 17.02 0.98 15.04 2 13 C1.34 12.67 0.68 12.34 0 12 C0.75 7.25 0.75 7.25 3 5 C2.01 5 1.02 5 0 5 C-0.33 4.34 -0.66 3.68 -1 3 C-2.64363134 2.27840576 -4.31050386 1.60648579 -6 1 C-6.33 1.99 -6.66 2.98 -7 4 C-8.60807036 5.81781867 -9.8214852 6.9107426 -12 8 C-12.65555119 10.52733235 -12.65555119 10.52733235 -13 13 C-12.01 13 -11.02 13 -10 13 C-10 14.65 -10 16.3 -10 18 C-10.66 18 -11.32 18 -12 18 C-14.59166136 14.47534055 -15.91041246 11.38978945 -16 7 C-14.08142561 2.84308881 -12.81118965 1.33922476 -8.5625 -0.4375 C-3.23809524 -1.27819549 -3.23809524 -1.27819549 0 0 Z " fill="#F09237" transform="translate(18,2)"/>
<path d="M0 0 C0.495 1.98 0.495 1.98 1 4 C-9.89 4 -20.78 4 -32 4 C-32 10.6 -32 17.2 -32 24 C-24.41 24 -16.82 24 -9 24 C-9.33 25.32 -9.66 26.64 -10 28 C-10 27.34 -10 26.68 -10 26 C-10.68626465 26.01047363 -11.3725293 26.02094727 -12.07958984 26.03173828 C-15.17802289 26.07321874 -18.27639761 26.09930069 -21.375 26.125 C-22.99535156 26.15013672 -22.99535156 26.15013672 -24.6484375 26.17578125 C-25.6796875 26.18222656 -26.7109375 26.18867187 -27.7734375 26.1953125 C-29.20308838 26.21102295 -29.20308838 26.21102295 -30.66162109 26.22705078 C-33 26 -33 26 -35 24 C-35.13525391 21.84521484 -35.13525391 21.84521484 -34.9765625 19.2109375 C-34.93096191 18.36321777 -34.88536133 17.51549805 -34.83837891 16.64208984 C-34.76796387 15.5639502 -34.69754883 14.48581055 -34.625 13.375 C-34.41875 9.95125 -34.2125 6.5275 -34 3 C-23.11 2.67 -12.22 2.34 -1 2 C-0.67 1.34 -0.34 0.68 0 0 Z " fill="#33373A" transform="translate(53,76)"/>
<path d="M0 0 C3.44312714 2.1244827 4.71617547 3.14852641 6 7 C6.375 10.375 6.375 10.375 6 14 C2.79520377 17.87949018 0.69366403 19.80826445 -4.3125 20.375 C-8 20 -8 20 -10.875 17.625 C-14.16087102 13.56598286 -14.44427743 11.24247372 -14 6 C-10.26270047 0.26947406 -6.75186421 -0.95716083 0 0 Z M-10.375 3 C-12.62175128 7.14784852 -12.59566305 9.30915346 -12 14 C-10.66666667 16.66666667 -10.66666667 16.66666667 -8 18 C-4.00701533 18.78550518 -1.04602317 18.60146332 2.5 16.5625 C4.71352426 12.78106272 4.32917236 9.2792407 4 5 C3.34 5 2.68 5 2 5 C2 4.34 2 3.68 2 3 C-2.37378839 0.30843791 -6.28372389 -0.44528514 -10.375 3 Z " fill="#393D40" transform="translate(165,170)"/>
<path d="M0 0 C0.66 0 1.32 0 2 0 C0.96110193 6.11181522 -0.17385695 12.06503509 -2 18 C-2.37773284 19.31171611 -2.75277055 20.62421158 -3.125 21.9375 C-3.41375 22.948125 -3.7025 23.95875 -4 25 C-4.99 25 -5.98 25 -7 25 C-8.09601788 21.24222441 -9.12132586 17.50206156 -10 13.6875 C-10.67310971 9.99530088 -10.67310971 9.99530088 -13 8 C-12.625 4.875 -12.625 4.875 -12 2 C-9.98973944 5.58587018 -8.97196209 9.30093646 -7.875 13.25 C-7.52179688 14.51328125 -7.16859375 15.7765625 -6.8046875 17.078125 C-6.53914063 18.04234375 -6.27359375 19.0065625 -6 20 C-5.67 20 -5.34 20 -5 20 C-3.35 13.4 -1.7 6.8 0 0 Z " fill="#2B2E31" transform="translate(126,75)"/>
<path d="M0 0 C1.13587904 3.40763713 0.84380057 4.29609641 -0.1796875 7.6328125 C-0.44910156 8.52097656 -0.71851562 9.40914062 -0.99609375 10.32421875 C-1.28613281 11.24847656 -1.57617188 12.17273438 -1.875 13.125 C-2.15730469 14.05699219 -2.43960938 14.98898438 -2.73046875 15.94921875 C-4.84988839 22.84988839 -4.84988839 22.84988839 -6 24 C-8.66002811 24.15317991 -11.2762188 24.23159875 -13.9375 24.25 C-14.67935547 24.270625 -15.42121094 24.29125 -16.18554688 24.3125 C-18.33984375 24.328125 -18.33984375 24.328125 -22 24 C-24 21 -24 21 -23.625 18.8125 C-23.41875 18.214375 -23.2125 17.61625 -23 17 C-22.34 18.32 -21.68 19.64 -21 21 C-16.38 21 -11.76 21 -7 21 C-7 20.01 -7 19.02 -7 18 C-6.34 18 -5.68 18 -5 18 C-4.87625 17.195625 -4.7525 16.39125 -4.625 15.5625 C-4.14050455 12.80087595 -3.63206754 10.05718769 -3.0625 7.3125 C-2.90910156 6.56613281 -2.75570312 5.81976563 -2.59765625 5.05078125 C-2 3 -2 3 0 0 Z " fill="#282D31" transform="translate(96,103)"/>
<path d="M0 0 C3.04872823 2.50370419 3.71719195 4.84412912 4.625 8.625 C5.24293679 12.10894051 5.24293679 12.10894051 7 15 C9.18292774 15.23481693 11.37203174 15.41363323 13.5625 15.5625 C14.76003906 15.64628906 15.95757812 15.73007813 17.19140625 15.81640625 C18.11824219 15.87699219 19.04507813 15.93757813 20 16 C20.103125 14.72125 20.20625 13.4425 20.3125 12.125 C20.48828125 9.9453125 20.48828125 9.9453125 21 8 C21.99 7.34 22.98 6.68 24 6 C23.50639991 10.27786748 22.95216435 13.09567131 21 17 C15.72 17 10.44 17 5 17 C0 5.33333333 0 5.33333333 0 0 Z " fill="#15191C" transform="translate(108,110)"/>
<path d="M0 0 C5.61 0 11.22 0 17 0 C15.89430162 5.76542726 14.70899657 11.38472557 13 17 C12.34 16.34 11.68 15.68 11 15 C11.42578125 12.25 11.42578125 12.25 12.3125 9 C12.59738281 7.9275 12.88226563 6.855 13.17578125 5.75 C14 3 14 3 15 1 C10.38 1 5.76 1 1 1 C0.896875 2.258125 0.79375 3.51625 0.6875 4.8125 C0.35141192 7.60499657 0.19974124 8.74433121 -1.5625 11 C-2.036875 11.33 -2.51125 11.66 -3 12 C-2.51855059 7.18550592 -2.1991413 4.39828259 0 0 Z " fill="#272B2F" transform="translate(130,62)"/>
<path d="M0 0 C0.33 0.99 0.66 1.98 1 3 C-2.75 6.875 -2.75 6.875 -5 8 C-5.65555119 10.52733235 -5.65555119 10.52733235 -6 13 C-5.01 13 -4.02 13 -3 13 C-3 14.65 -3 16.3 -3 18 C-3.66 18 -4.32 18 -5 18 C-7.59166136 14.47534055 -8.91041246 11.38978945 -9 7 C-7.375 3.6875 -7.375 3.6875 -5 1 C-2.25 0.125 -2.25 0.125 0 0 Z " fill="#E09045" transform="translate(11,2)"/>
<path d="M0 0 C0.33 0 0.66 0 1 0 C1 4.62 1 9.24 1 14 C10.57 14 20.14 14 30 14 C32.25 20.75 32.25 20.75 31 24 C29 21 29 21 28 16 C14.14 15.505 14.14 15.505 0 15 C-1.47193312 12.05613377 -0.84936173 9.62609964 -0.5625 6.375 C-0.46066406 5.18648437 -0.35882812 3.99796875 -0.25390625 2.7734375 C-0.17011719 1.85820313 -0.08632813 0.94296875 0 0 Z " fill="#2E3135" transform="translate(20,48)"/>
<path d="M0 0 C0.66 0 1.32 0 2 0 C3.00935416 4.0602345 4.0058367 8.12352164 5 12.1875 C5.28617187 13.33798828 5.57234375 14.48847656 5.8671875 15.67382812 C6.13789062 16.78564453 6.40859375 17.89746094 6.6875 19.04296875 C6.93886719 20.06414795 7.19023438 21.08532715 7.44921875 22.13745117 C7.96980513 24.84306968 8.10586387 27.25415588 8 30 C5.78056451 26.67084676 4.99240919 23.8506191 3.9375 20 C2.55609846 14.97338604 2.55609846 14.97338604 1 10 C0.77991948 8.27467737 0.59496906 6.54465967 0.4375 4.8125 C0.35371094 3.91144531 0.26992187 3.01039062 0.18359375 2.08203125 C0.12300781 1.39496094 0.06242187 0.70789063 0 0 Z " fill="#303336" transform="translate(73,65)"/>
<path d="M0 0 C1.36138702 3.74085476 0.62045822 6.30572847 -0.43359375 10.078125 C-0.75263672 11.23828125 -1.07167969 12.3984375 -1.40039062 13.59375 C-1.74263672 14.8003125 -2.08488281 16.006875 -2.4375 17.25 C-2.77587891 18.47203125 -3.11425781 19.6940625 -3.46289062 20.953125 C-4.29995517 23.97127322 -5.1459559 26.98662083 -6 30 C-7.05053711 28.11499023 -7.05053711 28.11499023 -8 26 C-7.19140625 24.16015625 -7.19140625 24.16015625 -6 22 C-5.58423857 19.82336666 -5.23479054 17.63345278 -4.9375 15.4375 C-4.48256172 12.12509817 -4.05787434 9.17362302 -3 6 C-3 5.01 -3 4.02 -3 3 C-2.34 3 -1.68 3 -1 3 C-0.67 2.01 -0.34 1.02 0 0 Z " fill="#2F3336" transform="translate(141,79)"/>
<path d="M0 0 C5.61 0 11.22 0 17 0 C17 0.66 17 1.32 17 2 C13.7 2 10.4 2 7 2 C5.0080023 5.59988475 5.0080023 5.59988475 4.5 8.125 C4 10 4 10 2 12 C0.86235649 7.73383684 0 4.43513689 0 0 Z " fill="#303236" transform="translate(57,62)"/>
<path d="M0 0 C7.20800421 -0.48867825 7.20800421 -0.48867825 10.9375 1.8125 C13.60534627 4.64203393 13.9481301 6.5331709 14.375 10.375 C13.9070996 14.89803721 12.43373232 16.16717084 9 19 C8.67 18.34 8.34 17.68 8 17 C8.66 17 9.32 17 10 17 C10.66 13.04 11.32 9.08 12 5 C11.34 5 10.68 5 10 5 C10 4.34 10 3.68 10 3 C6.7 2.34 3.4 1.68 0 1 C0 0.67 0 0.34 0 0 Z " fill="#3B4143" transform="translate(157,170)"/>
<path d="M0 0 C4.57261358 5.40399786 5.20880198 11.21830268 6 18 C6.33 18.66 6.66 19.32 7 20 C6.67 20.66 6.34 21.32 6 22 C6.66 22.33 7.32 22.66 8 23 C7.34 24.32 6.68 25.64 6 27 C4.99198324 23.2521079 3.99498711 19.50137033 3 15.75 C2.71382812 14.68652344 2.42765625 13.62304688 2.1328125 12.52734375 C1.86210938 11.50253906 1.59140625 10.47773437 1.3125 9.421875 C1.06113281 8.47924805 0.80976562 7.53662109 0.55078125 6.56542969 C0 4 0 4 0 0 Z " fill="#2C2F32" transform="translate(60,75)"/>
<path d="M0 0 C5.94 0 11.88 0 18 0 C18.33 2.31 18.66 4.62 19 7 C17.62437146 5.71034824 16.29233607 4.37310707 15 3 C15 2.34 15 1.68 15 1 C13.27014758 1.11512153 11.54111249 1.24255677 9.8125 1.375 C8.84957031 1.44460937 7.88664062 1.51421875 6.89453125 1.5859375 C3.98491062 2.00215853 1.67109226 2.79874096 -1 4 C-0.67 2.68 -0.34 1.36 0 0 Z " fill="#2B2E31" transform="translate(93,62)"/>
<path d="M0 0 C0.99 0.495 0.99 0.495 2 1 C2.33333333 3 2.66666667 5 3 7 C3.66 7.33 4.32 7.66 5 8 C5 11.3 5 14.6 5 18 C3.03723564 15.05585347 2.28266038 12.94101364 1.375 9.5625 C0.98441406 8.14130859 0.98441406 8.14130859 0.5859375 6.69140625 C0 4 0 4 0 0 Z " fill="#2F3235" transform="translate(103,92)"/>
<path d="M0 0 C0.33 0 0.66 0 1 0 C1 4.29 1 8.58 1 13 C-0.32 13.33 -1.64 13.66 -3 14 C-2.69024532 12.22868439 -2.37709575 10.45796222 -2.0625 8.6875 C-1.88847656 7.70136719 -1.71445313 6.71523437 -1.53515625 5.69921875 C-1 3 -1 3 0 0 Z M1 7 C1.99 7.495 1.99 7.495 3 8 C2.01 8.495 2.01 8.495 1 9 C1 8.34 1 7.68 1 7 Z " fill="#333739" transform="translate(91,66)"/>
<path d="M0 0 C3.41281372 2.64803754 3.83195549 5.57273832 4.6875 9.6875 C4.93886719 10.86699219 5.19023438 12.04648438 5.44921875 13.26171875 C5.63097656 14.16535156 5.81273438 15.06898437 6 16 C5.34 16 4.68 16 4 16 C3.32586789 14.08594633 2.6609668 12.16863974 2 10.25 C1.62875 9.18265625 1.2575 8.1153125 0.875 7.015625 C0 4 0 4 0 0 Z " fill="#2B2F32" transform="translate(108,110)"/>
<path d="M0 0 C0.66 0 1.32 0 2 0 C0.9611908 6.1112924 -0.15730278 12.07704464 -2 18 C-4 15 -4 15 -3.3203125 11.42578125 C-2.93508498 10.05091752 -2.53609893 8.67985079 -2.125 7.3125 C-1.92519531 6.61060547 -1.72539063 5.90871094 -1.51953125 5.18554688 C-1.02470374 3.45365057 -0.51386825 1.72634252 0 0 Z " fill="#323538" transform="translate(126,75)"/>
<path d="M0 0 C0.66 0 1.32 0 2 0 C1.38461538 7.50769231 1.38461538 7.50769231 -0.5625 10 C-1.036875 10.33 -1.51125 10.66 -2 11 C-1.125 3.375 -1.125 3.375 0 0 Z " fill="#303438" transform="translate(129,63)"/>
<path d="M0 0 C0.66 0.66 1.32 1.32 2 2 C4.65537372 2.56520003 7.29144713 2.73788198 10 3 C9.67 3.66 9.34 4.32 9 5 C2.25 5.125 2.25 5.125 0 4 C0 2.68 0 1.36 0 0 Z " fill="#414547" transform="translate(155,185)"/>
<path d="M0 0 C7.26153846 -0.49230769 7.26153846 -0.49230769 11 2 C11.66 2.66 12.32 3.32 13 4 C12.67 4.66 12.34 5.32 12 6 C11.34 5.67 10.68 5.34 10 5 C10 4.34 10 3.68 10 3 C6.7 2.34 3.4 1.68 0 1 C0 0.67 0 0.34 0 0 Z " fill="#2F3235" transform="translate(157,170)"/>
<path d="M0 0 C0.6875 1.6875 0.6875 1.6875 1 4 C-0.4375 6.75 -0.4375 6.75 -2 9 C-3.21185923 5.36442231 -2.59260392 4.36216382 -1 1 C-0.67 0.67 -0.34 0.34 0 0 Z " fill="#282D30" transform="translate(131,116)"/>
<path d="M0 0 C0.33 0.99 0.66 1.98 1 3 C-1.64 3.66 -4.28 4.32 -7 5 C-6.3125 3.0625 -6.3125 3.0625 -5 1 C-2.375 0.25 -2.375 0.25 0 0 Z " fill="#EFBC85" transform="translate(11,2)"/>
<path d="M0 0 C3.24208567 0.35049575 4.61527704 0.56221181 6.8125 3.0625 C7.204375 3.701875 7.59625 4.34125 8 5 C5.03 4.01 2.06 3.02 -1 2 C-0.67 1.34 -0.34 0.68 0 0 Z " fill="#C37B42" transform="translate(13,1)"/>
<path d="M0 0 C1.45047396 2.90094791 0.45356803 4.55972596 -0.4375 7.625 C-0.86869141 9.12933594 -0.86869141 9.12933594 -1.30859375 10.6640625 C-1.53675781 11.43492188 -1.76492187 12.20578125 -2 13 C-3.1171875 11.296875 -3.1171875 11.296875 -4 9 C-3.3203125 6.640625 -3.3203125 6.640625 -2.125 4.25 C-1.73570312 3.45078125 -1.34640625 2.6515625 -0.9453125 1.828125 C-0.63335937 1.22484375 -0.32140625 0.6215625 0 0 Z " fill="#232629" transform="translate(137,96)"/>
<path d="M0 0 C2 3 2 3 1.75 6.0625 C1 9 1 9 -1 11 C-0.67 7.37 -0.34 3.74 0 0 Z " fill="#D9904C" transform="translate(22,7)"/>
<path d="M0 0 C0.66 0.33 1.32 0.66 2 1 C2 1.66 2 2.32 2 3 C2.99 3.33 3.98 3.66 5 4 C2.36 4 -0.28 4 -3 4 C-3.33 3.34 -3.66 2.68 -4 2 C-2.68 2 -1.36 2 0 2 C0 1.34 0 0.68 0 0 Z " fill="#E9973C" transform="translate(12,18)"/>
</svg>
